<?xml version="1.0" encoding="UTF-8"?>
<svg version="1.1" xmlns="http://www.w3.org/2000/svg" width="512" height="512">
<path d="M0 0 C1.01790619 0.00215515 2.03581238 0.0043103 3.08456421 0.00653076 C17.69363523 0.05620146 32.02575853 0.30709809 46.375 3.3125 C47.34985352 3.51117676 48.32470703 3.70985352 49.32910156 3.91455078 C97.7109774 14.03517194 141.69928269 35.9516877 177.375 70.3125 C178.3640332 71.26068604 178.3640332 71.26068604 179.37304688 72.22802734 C188.86130305 81.37247479 197.6012044 90.66984009 205.375 101.3125 C206.23306152 102.46355017 207.09113451 103.61459177 207.94921875 104.765625 C213.98736829 112.95680614 219.34595521 121.47054105 224.375 130.3125 C224.73948242 130.94430176 225.10396484 131.57610352 225.47949219 132.22705078 C247.08534998 169.97532572 256.85198095 212.74189997 256.6875 255.9375 C256.68534485 256.95540619 256.6831897 257.97331238 256.68096924 259.02206421 C256.63129854 273.63113523 256.38040191 287.96325853 253.375 302.3125 C253.07698486 303.77478027 253.07698486 303.77478027 252.77294922 305.26660156 C242.65232806 353.6484774 220.7358123 397.63678269 186.375 433.3125 C185.74287598 433.97185547 185.11075195 434.63121094 184.45947266 435.31054688 C175.31502521 444.79880305 166.01765991 453.5387044 155.375 461.3125 C154.22394983 462.17056152 153.07290823 463.02863451 151.921875 463.88671875 C143.73224019 469.92427396 135.22961724 475.30707302 126.375 480.3125 C125.66778809 480.7146875 124.96057617 481.116875 124.23193359 481.53125 C101.09654164 494.5566741 75.92537591 503.30551461 49.9375 508.625 C49.21860596 508.77235596 48.49971191 508.91971191 47.7590332 509.0715332 C33.08339502 511.86090125 18.55831162 512.66142619 3.64770508 512.62817383 C0.70811513 512.6250221 -2.2304558 512.64854926 -5.16992188 512.67382812 C-18.54306192 512.71848737 -31.43916711 511.51301542 -44.625 509.3125 C-46.33055054 509.03031616 -46.33055054 509.03031616 -48.07055664 508.74243164 C-91.33802759 500.97044532 -132.38793216 480.98345309 -165.625 452.3125 C-166.37007813 451.67828125 -167.11515625 451.0440625 -167.8828125 450.390625 C-181.38779833 438.57948485 -194.05918743 425.82889772 -204.625 411.3125 C-205.48149066 410.16255169 -206.33826433 409.01281411 -207.1953125 407.86328125 C-213.23534209 399.67315742 -218.61867614 391.16870382 -223.625 382.3125 C-224.0271875 381.60528809 -224.429375 380.89807617 -224.84375 380.16943359 C-237.8691741 357.03404164 -246.61801461 331.86287591 -251.9375 305.875 C-252.08485596 305.15610596 -252.23221191 304.43721191 -252.3840332 303.6965332 C-255.35789088 288.05024391 -255.99800362 272.57681954 -255.9375 256.6875 C-255.93534485 255.66959381 -255.9331897 254.65168762 -255.93096924 253.60293579 C-255.88129854 238.99386477 -255.63040191 224.66174147 -252.625 210.3125 C-252.42632324 209.33764648 -252.22764648 208.36279297 -252.02294922 207.35839844 C-241.90232806 158.9765226 -219.9858123 114.98821731 -185.625 79.3125 C-184.99287598 78.65314453 -184.36075195 77.99378906 -183.70947266 77.31445312 C-174.56502521 67.82619695 -165.26765991 59.0862956 -154.625 51.3125 C-153.47394983 50.45443848 -152.32290823 49.59636549 -151.171875 48.73828125 C-142.98224019 42.70072604 -134.47961724 37.31792698 -125.625 32.3125 C-124.91778809 31.9103125 -124.21057617 31.508125 -123.48193359 31.09375 C-100.34654164 18.0683259 -75.17537591 9.31948539 -49.1875 4 C-48.46860596 3.85264404 -47.74971191 3.70528809 -47.0090332 3.5534668 C-31.36274391 0.57960912 -15.88931954 -0.06050362 0 0 Z " fill="#FD6A16" transform="translate(255.625,-0.3125)"/>
<path d="M0 0 C0.66 0 1.32 0 2 0 C3.24110413 1.28088379 3.24110413 1.28088379 4.76196289 3.16601562 C9.7316451 9.0051225 15.31300455 14.17958385 20.85186577 19.46855164 C24.94007295 23.38641835 28.98877668 27.34520103 33.04400539 31.29714203 C36.59322873 34.75155001 40.15566453 38.18991013 43.74975586 41.59765625 C47.24927372 44.91730407 50.70740754 48.27546767 54.14164925 51.66255188 C55.44767176 52.93674179 56.76772967 54.19672262 58.10220146 55.44108582 C69.56664151 66.15696518 69.56664151 66.15696518 69.89063358 74.42118835 C69.80258491 77.64983408 69.4467228 80.80291634 69 84 C68.84636334 85.90453565 68.69668459 87.80940493 68.5546875 89.71484375 C68.3432079 91.45762571 68.11643546 93.19861486 67.875 94.9375 C67.74375732 95.89857666 67.61251465 96.85965332 67.47729492 97.84985352 C59.77561757 150.54531685 35.91282193 199.67461384 -1 238 C-1.63212402 238.65935547 -2.26424805 239.31871094 -2.91552734 239.99804688 C-12.05997479 249.48630305 -21.35734009 258.2262044 -32 266 C-33.15105017 266.85806152 -34.30209177 267.71613451 -35.453125 268.57421875 C-43.64275981 274.61177396 -52.14538276 279.99457302 -61 285 C-61.70721191 285.4021875 -62.41442383 285.804375 -63.14306641 286.21875 C-93.11398938 303.0926367 -127.38337246 313.85956748 -161.70040345 316.76760483 C-163.8552394 316.98537062 -165.96795257 317.30894701 -168.10585594 317.65091705 C-175.0129837 318.49379222 -180.703754 318.33925937 -186.48732376 314.13737488 C-191.49023716 309.95849963 -195.96508888 305.26435963 -200.47509766 300.56835938 C-202.23740661 298.80096721 -204.00370035 297.03754084 -205.77363586 295.27778625 C-209.56097901 291.4945271 -213.31921871 287.68563385 -217.05321121 283.84992981 C-222.45151788 278.30467464 -227.89948423 272.81042554 -233.36042862 267.32692856 C-242.22091838 258.42714486 -251.04055307 249.48800306 -259.83496094 240.52294922 C-268.37262131 231.81979981 -276.92918267 223.13595949 -285.51171875 214.47705078 C-286.30663353 213.67504247 -286.30663353 213.67504247 -287.11760719 212.85683197 C-289.77657273 210.17437397 -292.43591277 207.49228761 -295.0954392 204.8103857 C-317.12199884 182.59754166 -339.0817197 160.31971948 -361 138 C-360.34 137.67 -359.68 137.34 -359 137 C-357.66388672 137.45246094 -357.66388672 137.45246094 -356.30078125 137.9140625 C-349.1760281 140.25806413 -340.79570103 140.18302731 -333.875 137.1875 C-331.03451562 135.70665378 -328.5043315 134.0034652 -326 132 C-325.34 132 -324.68 132 -324 132 C-323.34 130.68 -322.68 129.36 -322 128 C-321.67 128 -321.34 128 -321 128 C-320.97421875 129.09957031 -320.9484375 130.19914063 -320.921875 131.33203125 C-320.51924462 143.25556509 -319.42008083 153.35265027 -310.79296875 162.34765625 C-303.4290386 169.13402325 -296.29069728 170.47058065 -286.546875 170.31640625 C-278.7593639 169.62170537 -272.43304061 166.55939039 -267 161 C-252.02886446 140.85777586 -259.45434542 116.44334333 -259 91 C-211.48 91 -163.96 91 -115 91 C-114.67 109.48 -114.34 127.96 -114 147 C-108.99808864 158.25430056 -105.94958278 163.69434851 -95 169 C-88.09405674 171.35429884 -78.85105802 171.18426715 -72.125 168.4375 C-63.58105712 163.87967173 -58.51509114 158.00647816 -55 149 C-54.22392488 146.2706849 -53.83371776 143.72153499 -53.68359375 140.890625 C-53.64169922 140.13652344 -53.59980469 139.38242187 -53.55664062 138.60546875 C-53.51732422 137.82816406 -53.47800781 137.05085937 -53.4375 136.25 C-53.39431641 135.45722656 -53.35113281 134.66445313 -53.30664062 133.84765625 C-53.20097009 131.89862185 -53.10002034 129.94933252 -53 128 C-52.54463867 128.41967041 -52.08927734 128.83934082 -51.62011719 129.27172852 C-43.36967162 136.79982495 -35.70978834 139.36543146 -24.5859375 139.28515625 C-19.68788968 138.89566007 -16.18067752 137.4841707 -12 135 C-10.948125 134.443125 -9.89625 133.88625 -8.8125 133.3125 C-2.59518998 128.20048954 1.45715029 121.06687438 2.31884766 113.02392578 C2.35026855 112.0079834 2.38168945 110.99204102 2.4140625 109.9453125 C2.45273437 108.83671875 2.49140625 107.728125 2.53125 106.5859375 C2.5621875 105.44382812 2.593125 104.30171875 2.625 103.125 C2.66367187 101.9596875 2.70234375 100.794375 2.7421875 99.59375 C2.83610006 96.72941703 2.9191235 93.86473069 3 91 C10.59 91 18.18 91 26 91 C26 71.53 26 52.06 26 32 C18.41 32 10.82 32 3 32 C2.95101563 30.3603125 2.90203125 28.720625 2.8515625 27.03125 C2.77649013 24.85415116 2.70094425 22.6770686 2.625 20.5 C2.57859375 18.88351563 2.57859375 18.88351563 2.53125 17.234375 C2.3102891 11.1947772 1.73041744 5.79619499 0 0 Z " fill="#E73C00" transform="translate(443,195)"/>
<path d="M0 0 C8.31272325 4.83893127 13.10170103 12.38417432 15.6640625 21.55078125 C16.0230149 24.50475445 16.16816046 27.45360619 16.2890625 30.42578125 C16.34707031 31.60140625 16.34707031 31.60140625 16.40625 32.80078125 C16.49972872 34.71709492 16.58294745 36.63390444 16.6640625 38.55078125 C17.13714844 38.091875 17.61023438 37.63296875 18.09765625 37.16015625 C24.64779505 31.08244461 30.44384789 27.41505987 39.5390625 27.05078125 C48.70103994 27.41213151 56.29999077 30.25593377 62.9453125 36.62890625 C71.00763575 45.64404952 71.96996119 54.26465461 71.7890625 65.98828125 C71.78003906 67.10138672 71.77101563 68.21449219 71.76171875 69.36132812 C71.73828604 72.09123934 71.70241953 74.82103894 71.6640625 77.55078125 C79.2540625 77.55078125 86.8440625 77.55078125 94.6640625 77.55078125 C94.6640625 97.02078125 94.6640625 116.49078125 94.6640625 136.55078125 C87.0740625 136.55078125 79.4840625 136.55078125 71.6640625 136.55078125 C71.71046875 138.25105469 71.756875 139.95132813 71.8046875 141.703125 C71.84222611 143.96482608 71.87862401 146.22654629 71.9140625 148.48828125 C71.94757813 149.60525391 71.98109375 150.72222656 72.015625 151.87304688 C72.09988138 159.05590348 71.28470898 164.31214179 67.6640625 170.55078125 C67.19484375 171.3603125 66.725625 172.16984375 66.2421875 173.00390625 C61.32170947 179.66102359 55.63565921 183.31520431 47.6640625 185.55078125 C37.93187872 186.53198618 30.1236358 185.83585811 22.33984375 179.7265625 C20.39197799 178.05065007 18.50811421 176.33956165 16.6640625 174.55078125 C16.62539063 176.09185547 16.62539063 176.09185547 16.5859375 177.6640625 C16.16859033 189.2377438 14.88378774 199.11440108 6.5234375 207.83203125 C-1.24864401 215.01630828 -8.15635903 217.04261292 -18.79296875 216.86328125 C-27.00619164 216.13885145 -33.82535968 212.67989331 -39.3359375 206.55078125 C-44.32735516 199.91325776 -46.58091993 193.73792234 -46.60336304 185.36003113 C-46.60789415 184.65888367 -46.61242526 183.9577362 -46.61709368 183.23534185 C-46.62970195 180.89795614 -46.62811965 178.56080451 -46.62646484 176.22338867 C-46.63245235 174.54254356 -46.63925841 172.86170119 -46.64682007 171.18086243 C-46.66446502 166.6228928 -46.66917482 162.0649983 -46.67045164 157.50699782 C-46.67187469 154.65687707 -46.6761472 151.80677534 -46.68144608 148.95665932 C-46.6999416 139.0064943 -46.70811731 129.05638281 -46.70654297 119.10620117 C-46.7053418 109.84260653 -46.72644046 100.57924497 -46.7580303 91.31570929 C-46.78421342 83.35286975 -46.7949094 75.39010623 -46.79363215 67.42722398 C-46.7931231 62.67561889 -46.7987746 57.92422099 -46.81998825 53.17265892 C-46.8394049 48.70165556 -46.83947179 44.2310563 -46.82495499 39.76003838 C-46.82287001 38.12383685 -46.82754919 36.48760979 -46.8396759 34.85145187 C-46.92243742 22.9066946 -45.59158121 14.3460978 -37.1953125 5.33984375 C-26.54602995 -4.90673484 -13.36296566 -6.25838101 0 0 Z " fill="#555A65" transform="translate(374.3359375,149.44921875)"/>
<path d="M0 0 C8.16680186 5.34468307 13.87411706 12.02222369 17.0234375 21.32421875 C17.28070641 24.59771252 17.28070641 24.59771252 17.29086304 28.38798523 C17.29539415 29.0875727 17.29992526 29.78716017 17.30459368 30.50794727 C17.31722758 32.84610475 17.31561797 35.18402901 17.31396484 37.5222168 C17.31995087 39.2012919 17.32675659 40.88036425 17.33432007 42.55943298 C17.35198316 47.11752894 17.35667568 51.6755498 17.35795164 56.23367667 C17.35937402 59.08396735 17.36364533 61.93423898 17.36894608 64.78452492 C17.3874498 74.73583817 17.39561656 84.68709785 17.39404297 94.63842773 C17.39284259 103.9014137 17.41392373 113.16416627 17.4455303 122.42709321 C17.47172557 130.38907897 17.48240885 138.35098869 17.48113215 146.31301719 C17.48062332 151.06411016 17.48626209 155.81499586 17.50748825 160.56604576 C17.52692459 165.0386804 17.5269584 169.51091126 17.51245499 173.98356056 C17.51037222 175.61934121 17.51503587 177.25514748 17.5271759 178.8908844 C17.60570605 190.2110161 16.82462996 200.12231066 8.7265625 208.79296875 C0.91560172 215.81566743 -7.13519721 217.81816271 -17.50390625 217.6328125 C-26.01032285 216.87689921 -32.24978593 212.4761272 -37.9765625 206.32421875 C-43.51345688 199.18527879 -45.21126475 191.77412371 -45.6015625 182.88671875 C-45.65957031 181.7894043 -45.65957031 181.7894043 -45.71875 180.66992188 C-45.81190234 178.88838343 -45.89526536 177.10633753 -45.9765625 175.32421875 C-47.12318359 176.49404297 -47.12318359 176.49404297 -48.29296875 177.6875 C-54.64920729 183.93271254 -60.90655597 186.59952732 -69.7890625 186.69921875 C-76.11325812 186.60592187 -80.5692444 185.5327104 -85.9765625 182.32421875 C-87.0078125 181.78796875 -88.0390625 181.25171875 -89.1015625 180.69921875 C-94.91366036 175.89792052 -99.04846463 169.61066616 -100.9765625 162.32421875 C-101.28130554 158.7951102 -101.29081711 155.27660203 -101.29882812 151.73583984 C-101.30875793 150.68134644 -101.31868774 149.62685303 -101.32891846 148.54040527 C-101.35807362 145.05946211 -101.37175215 141.57870135 -101.3828125 138.09765625 C-101.39432439 135.66875202 -101.40583974 133.2398478 -101.4173584 130.8109436 C-101.43835452 125.71851763 -101.45005487 120.62615456 -101.45703125 115.53369141 C-101.46798396 109.03061934 -101.51601181 102.52838831 -101.57297516 96.02557945 C-101.6103572 91.00674061 -101.62064601 85.98810155 -101.623703 80.96913528 C-101.62973003 78.57308998 -101.64569878 76.1770471 -101.67207336 73.78113937 C-101.82398714 58.91778442 -101.76919651 48.14111227 -91.7890625 36.38671875 C-84.93992531 30.25854337 -77.10932322 27.45984711 -67.9609375 27.91015625 C-58.81178228 29.17954166 -52.39716109 32.77484025 -45.9765625 39.32421875 C-45.93789062 37.65746094 -45.93789062 37.65746094 -45.8984375 35.95703125 C-45.47078509 23.11734567 -43.77948301 14.11195006 -34.515625 4.53125 C-25.04262492 -3.70297315 -11.33902102 -6.00673046 0 0 Z " fill="#333940" transform="translate(166.9765625,148.67578125)"/>
<path d="M0 0 C38.94 0 77.88 0 118 0 C118 61.49541284 118 61.49541284 108 72 C99.4652988 78.72534454 90.66767244 79.94797089 80 79 C73.01555602 77.2668616 68.07346688 72.92140112 63 68 C62.97421875 69.02738281 62.9484375 70.05476563 62.921875 71.11328125 C62.50452783 82.68696255 61.21972524 92.56361983 52.859375 101.28125 C45.08729349 108.46552703 38.17957847 110.49183167 27.54296875 110.3125 C19.32974586 109.5880702 12.51057782 106.12911206 7 100 C1.65113173 92.88714326 -0.30892145 86.34483906 -0.22705078 77.42431641 C-0.22729185 76.57114523 -0.22753292 75.71797405 -0.2277813 74.8389492 C-0.22629539 72.09304541 -0.2110959 69.34741736 -0.1953125 66.6015625 C-0.19236982 64.89998505 -0.19033077 63.19840579 -0.18920898 61.49682617 C-0.17874768 55.20618974 -0.15082514 48.91559212 -0.125 42.625 C-0.08375 28.55875 -0.0425 14.4925 0 0 Z " fill="#333940" transform="translate(328,256)"/>
<path d="M0 0 C8.11167232 5.30860408 13.97965583 12.0304261 17.0234375 21.32421875 C17.20107022 24.17965173 17.27655355 26.93330569 17.25048828 29.78637695 C17.25072935 30.6394276 17.25097042 31.49247824 17.2512188 32.3713789 C17.24973036 35.12269338 17.23451918 37.87373423 17.21875 40.625 C17.21580811 42.3275947 17.21376857 44.03019121 17.21264648 45.73278809 C17.20217609 52.03412596 17.17425358 58.33542506 17.1484375 64.63671875 C17.1071875 78.72359375 17.0659375 92.81046875 17.0234375 107.32421875 C-21.9165625 107.32421875 -60.8565625 107.32421875 -100.9765625 107.32421875 C-100.9765625 47.73598346 -100.9765625 47.73598346 -91.7890625 36.38671875 C-84.93992531 30.25854337 -77.10932322 27.45984711 -67.9609375 27.91015625 C-58.81178228 29.17954166 -52.39716109 32.77484025 -45.9765625 39.32421875 C-45.93789062 37.65746094 -45.93789062 37.65746094 -45.8984375 35.95703125 C-45.47078509 23.11734567 -43.77948301 14.11195006 -34.515625 4.53125 C-25.04262492 -3.70297315 -11.33902102 -6.00673046 0 0 Z " fill="#555A65" transform="translate(166.9765625,148.67578125)"/>
<path d="M0 0 C47.52 0 95.04 0 144 0 C144 19.47 144 38.94 144 59 C96.48 59 48.96 59 0 59 C0 39.53 0 20.06 0 0 Z " fill="#E9EAF1" transform="translate(184,227)"/>
<path d="M0 0 C7.15745104 4.82456171 12.34662369 11.41106091 14.62060547 19.80126953 C15.4538781 24.63039006 15.20035078 29.55418976 15.125 34.4375 C15.11597656 35.55060547 15.10695313 36.66371094 15.09765625 37.81054688 C15.07422354 40.54045809 15.03835703 43.27025769 15 46 C22.59 46 30.18 46 38 46 C38 65.47 38 84.94 38 105 C30.41 105 22.82 105 15 105 C15 95.1 15 85.2 15 75 C-3.48 75 -21.96 75 -41 75 C-41.28076167 58.84951944 -41.28076167 58.84951944 -41.34179688 51.9296875 C-41.3835374 47.2198114 -41.43274506 42.51089383 -41.52807617 37.80175781 C-41.60450919 34.00207577 -41.64606657 30.20342223 -41.6641407 26.4030304 C-41.67700904 24.95811277 -41.70213935 23.5132473 -41.7401104 22.06877136 C-42.06091262 9.35146852 -42.06091262 9.35146852 -37.62402344 4.16601562 C-26.96118561 -5.9895021 -12.776492 -6.66343198 0 0 Z " fill="#636977" transform="translate(431,181)"/>
<path d="M0 0 C38.94 0 77.88 0 118 0 C118 0.33 118 0.66 118 1 C97.87 1.33 77.74 1.66 57 2 C56.98582031 6.63417969 56.97164062 11.26835937 56.95703125 16.04296875 C56.93696907 18.98249782 56.91544734 21.92187127 56.88867188 24.86132812 C56.84633051 29.52488271 56.80933713 34.18804281 56.80444336 38.85180664 C56.80015816 42.61285202 56.77167906 46.37301383 56.72656822 50.13378334 C56.71359996 51.56700807 56.70928323 53.00033859 56.71384621 54.43361473 C56.71875573 56.44434439 56.68978005 58.45506968 56.65942383 60.46557617 C56.65276199 61.60919113 56.64610016 62.75280609 56.63923645 63.93107605 C55.57950789 69.01874955 51.62918124 71.75207781 47.5625 74.6875 C47.02753906 75.08324219 46.49257812 75.47898437 45.94140625 75.88671875 C39.06689463 79.82884312 31.69418225 79.70810656 24 79 C20.69848011 78.07308993 17.9402695 76.74464124 15 75 C13.96875 74.46375 12.9375 73.9275 11.875 73.375 C5.8214391 68.3742323 2.45938431 62.37815292 0 55 C0 36.85 0 18.7 0 0 Z " fill="#414951" transform="translate(66,256)"/>
<path d="M0 0 C47.52 0 95.04 0 144 0 C144 9.57 144 19.14 144 29 C96.48 29 48.96 29 0 29 C0 19.43 0 9.86 0 0 Z " fill="#FFFFFF" transform="translate(184,227)"/>
<path d="M0 0 C18.48 0 36.96 0 56 0 C56.0825 8.889375 56.165 17.77875 56.25 26.9375 C56.28641602 29.72695068 56.32283203 32.51640137 56.36035156 35.39038086 C56.37204384 37.62352735 56.38223439 39.85668242 56.390625 42.08984375 C56.41108887 43.23134888 56.43155273 44.372854 56.45263672 45.5489502 C56.4571824 56.03925073 53.28818851 64.34405886 46 72 C37.4652988 78.72534454 28.66767244 79.94797089 18 79 C10.58080814 77.15898211 5.29351349 72.29351349 0 67 C-0.09417773 64.91380978 -0.11742878 62.82439523 -0.11352539 60.73608398 C-0.11367142 60.08244873 -0.11381744 59.42881348 -0.1139679 58.75537109 C-0.11326883 56.58557872 -0.10547678 54.41587121 -0.09765625 52.24609375 C-0.09579205 50.74536689 -0.09436816 49.24463943 -0.09336853 47.74391174 C-0.08954352 43.78681774 -0.0797134 39.82976022 -0.06866455 35.87268066 C-0.05665533 31.1286825 -0.05204811 26.38467215 -0.04621124 21.64066315 C-0.03650162 14.42708336 -0.01734498 7.21358369 0 0 Z " fill="#414952" transform="translate(390,256)"/>
<path d="M0 0 C3.48815776 2.51797884 7.04740298 5.09480596 9 9 C9.09167789 11.09355019 9.11750933 13.19009177 9.11352539 15.28564453 C9.11367142 15.92967224 9.11381744 16.57369995 9.1139679 17.23724365 C9.1132704 19.36913402 9.10548566 21.50093737 9.09765625 23.6328125 C9.09579149 25.10968986 9.09436786 26.58656784 9.09336853 28.06344604 C9.08954792 31.95312199 9.07972152 35.84276067 9.06866455 39.73242188 C9.0566435 44.39801768 9.05204602 49.06362593 9.04621124 53.72923279 C9.03650953 60.81951445 9.0173498 67.90971434 9 75 C-9.48 75 -27.96 75 -47 75 C-47.12375 66.1725 -47.2475 57.345 -47.375 48.25 C-47.42962402 45.48786133 -47.48424805 42.72572266 -47.54052734 39.87988281 C-47.55807515 37.65431458 -47.57335874 35.42872686 -47.5859375 33.203125 C-47.6166333 32.07696777 -47.6473291 30.95081055 -47.67895508 29.79052734 C-47.68547865 19.75727742 -44.4258827 11.65045124 -37.8125 4.0625 C-26.85664513 -5.74010699 -12.83701641 -6.77182059 0 0 Z " fill="#636977" transform="translate(113,181)"/>
<path d="M0 0 C3.26070984 1.08690328 3.79398491 1.68184548 5.87915039 4.25024414 C10.65121267 9.8686372 15.8842534 14.99607132 21.11108208 20.18624687 C22.9665417 22.02881274 24.81874472 23.87459891 26.67018127 25.72120667 C30.58979814 29.62947705 34.51337335 33.53375843 38.4375 37.4375 C43.0109331 41.98733652 47.58273207 46.53879091 52.15037727 51.09443855 C53.97871611 52.91627789 55.81002849 54.73509241 57.64146423 56.55381775 C58.75127511 57.65999966 59.86094783 58.7663202 60.97045898 59.87280273 C61.48310303 60.38028046 61.99574707 60.88775818 62.52392578 61.41061401 C63.70174395 62.5882521 64.85397923 63.79139606 66 65 C66 65.33 66 65.66 66 66 C45.87 66 25.74 66 5 66 C4.75 38.625 4.75 38.625 4.70214844 30.04150391 C4.67275504 27.76983644 4.64192505 25.49818692 4.609375 23.2265625 C4.60768311 21.48959106 4.60768311 21.48959106 4.60595703 19.7175293 C4.47742085 12.35177885 3.278676 6.61631424 0 0 Z " fill="#E73C00" transform="translate(179,160)"/>
<path d="M0 0 C7.59 0 15.18 0 23 0 C23 19.47 23 38.94 23 59 C15.41 59 7.82 59 0 59 C0 39.53 0 20.06 0 0 Z " fill="#EAEAF0" transform="translate(446,227)"/>
<path d="M0 0 C7.59 0 15.18 0 23 0 C23 19.14 23 38.28 23 58 C15.41 58 7.82 58 0 58 C0 38.86 0 19.72 0 0 Z " fill="#E9EDF5" transform="translate(43,227)"/>
<path d="M0 0 C7.59 0 15.18 0 23 0 C23 9.57 23 19.14 23 29 C15.41 29 7.82 29 0 29 C0 19.43 0 9.86 0 0 Z " fill="#FFFEFE" transform="translate(43,227)"/>
<path d="M0 0 C7.26 0 14.52 0 22 0 C22 9.57 22 19.14 22 29 C14.74 29 7.48 29 0 29 C0 19.43 0 9.86 0 0 Z " fill="#FFFFFF" transform="translate(446,227)"/>
<path d="M0 0 C7.26 0 14.52 0 22 0 C22 7.26 22 14.52 22 22 C14.11135642 15.23830551 14.11135642 15.23830551 11.03515625 12.16796875 C10.38095703 11.51505859 9.72675781 10.86214844 9.05273438 10.18945312 C8.39595703 9.52880859 7.73917969 8.86816406 7.0625 8.1875 C6.37865234 7.50751953 5.69480469 6.82753906 4.99023438 6.12695312 C4.34505859 5.48048828 3.69988281 4.83402344 3.03515625 4.16796875 C2.4512915 3.58297607 1.86742676 2.9979834 1.26586914 2.39526367 C0 1 0 1 0 0 Z " fill="#E83D00" transform="translate(44,286)"/>
<path d="M0 0 C6.41069287 5.27101414 12.18590512 11.09128152 18 17 C15.27323998 19.84777008 12.29291825 21.82667395 9 24 C7.32507677 25.32294661 5.65703345 26.65471352 4 28 C3.96261719 26.81664062 3.92523438 25.63328125 3.88671875 24.4140625 C3.55506232 15.91323194 3.19738231 8.00351045 0 0 Z " fill="#E53D02" transform="translate(386,161)"/>
</svg>
